<?xml version="1.0" standalone="no"?>
<!DOCTYPE svg PUBLIC "-//W3C//DTD SVG 20010904//EN"
 "http://www.w3.org/TR/2001/REC-SVG-20010904/DTD/svg10.dtd">
<svg version="1.0" xmlns="http://www.w3.org/2000/svg"
 width="1484.000000pt" height="1090.000000pt" viewBox="0 0 1484.000000 1090.000000"
 preserveAspectRatio="xMidYMid meet">

<g transform="translate(0.000000,1090.000000) scale(0.100000,-0.100000)"
fill="#FFFFFF" stroke="none">
<path d="M2745 10890 c-511 -57 -927 -395 -1078 -876 -123 -390 43 -848 388
-1073 151 -99 318 -145 520 -144 152 0 231 17 350 73 253 118 457 393 532 715
27 121 25 349 -6 427 -73 187 -303 244 -450 112 -29 -26 -58 -65 -72 -96 -21
-48 -23 -65 -21 -171 4 -173 -25 -268 -117 -385 -52 -65 -114 -102 -185 -109
-65 -7 -165 11 -219 38 -130 67 -218 262 -187 413 21 102 85 211 180 307 72
73 100 94 180 133 257 125 546 95 953 -101 144 -69 162 -75 220 -75 259 0 384
322 191 492 -45 39 -277 153 -417 205 -262 96 -545 139 -762 115z"/>
<path d="M10996 9129 c-636 -87 -1327 -467 -1753 -964 -303 -353 -587 -866
-748 -1350 -227 -685 -228 -1299 -2 -1739 157 -307 392 -496 782 -629 255 -87
465 -125 740 -134 1037 -34 2225 536 3500 1677 433 388 1213 1219 1296 1382
12 24 24 69 27 104 13 166 -116 304 -284 304 -102 0 -162 -41 -295 -200 -341
-410 -837 -916 -1252 -1279 -809 -706 -1594 -1169 -2278 -1341 -383 -97 -790
-106 -1110 -25 -471 120 -653 299 -714 702 -78 518 146 1262 575 1903 235 351
502 590 882 790 304 159 598 241 868 242 215 0 343 -41 433 -142 73 -81 92
-151 91 -330 -3 -419 -189 -821 -535 -1155 -353 -341 -818 -561 -1436 -679
-143 -27 -191 -47 -240 -98 -171 -178 -45 -478 201 -478 122 0 531 101 791
195 1028 373 1706 1171 1785 2100 24 285 -33 543 -163 735 -45 67 -154 176
-224 226 -89 64 -218 122 -351 156 -108 28 -132 31 -317 34 -110 1 -231 -2
-269 -7z"/>
<path d="M6255 9039 c-512 -48 -1029 -249 -1450 -563 -162 -121 -401 -360
-441 -441 -38 -79 -39 -68 36 -965 429 -5177 429 -5179 451 -5231 29 -67 101
-131 174 -154 180 -56 365 79 365 266 0 26 -97 1214 -215 2640 -118 1427 -227
2735 -241 2908 l-26 313 34 35 c18 20 74 70 123 111 427 359 1079 572 1562
512 369 -46 600 -228 670 -527 26 -112 26 -452 -1 -573 -82 -380 -292 -736
-636 -1080 -263 -263 -605 -519 -1010 -756 -158 -93 -200 -131 -229 -208 -62
-167 31 -338 206 -377 86 -20 144 -2 297 87 1136 665 1779 1420 1938 2274 18
96 22 154 22 350 1 206 -2 249 -22 348 -113 561 -488 909 -1092 1013 -136 23
-373 32 -515 18z"/>
<path d="M2717 8306 c-102 -28 -182 -112 -202 -212 -8 -42 -8 -78 1 -148 44
-325 171 -2026 369 -4946 28 -400 27 -471 -1 -670 -111 -762 -691 -1478 -1374
-1695 -136 -43 -227 -58 -375 -58 -244 -2 -432 58 -616 195 -119 88 -132 93
-229 93 -98 0 -141 -18 -201 -82 -53 -55 -72 -99 -77 -181 -4 -66 -2 -78 27
-137 24 -49 46 -75 94 -113 212 -169 461 -282 722 -328 135 -24 404 -24 535
-1 226 41 381 92 595 197 757 371 1316 1136 1455 1991 46 283 45 335 -10 1152
-174 2571 -287 4069 -346 4597 -12 110 -20 146 -45 197 -59 123 -194 185 -322
149z"/>
</g>
</svg>
